# xmcd CD database file
#
# Track frame offsets:
#	150
#	14623
#	28099
#	40464
#	51819
#	63337
#	79775
#	94334
#	108080
#	120311
#	133859
#	147806
#	159629
#	170599
#	183489
#	195909
#	210544
#	225999
#	242498
#	256273
#	271995
#	285066
#	296865
#	311653
#
# Disc length: 4332 seconds
#
# Revision: 0
# Processed by: cddbd v1.5.2PL0 Copyright (c) Steve Scherf et al.
# Submitted via: CDex 1.70beta2
#
DISCID=4e10ea18
DTITLE=CARMEN  McRAE - UNE ANTHOLOGIE 1954 /1956 CD2
DYEAR=1900
DGENRE=Jazz
TTITLE0=SPEAK LOW
TTITLE1=BUT BEAUTIFUL
TTITLE2=I GUESS I'LL DRESS UP FOR THE BLUES 
TTITLE3=YESTERDAYS
TTITLE4=LAST NIGHT WHEN WE WERE YOUNG
TTITLE5=MIDNIGHT SUN
TTITLE6=GOOD MORNING HEARTACHE
TTITLE7=STAR EYES
TTITLE8=I'M A DREAMER, AREN'T WE ALL
TTITLE9=WE'LL BE TOGETHER AGAIN
TTITLE10=(I DON'T STAND) A GHOST OF A CHANCE (WITH YOU)
TTITLE11=BLUE MOON
TTITLE12=I'M PUTTING ALL MY EGGS IN ONE BASKET
TTITLE13=I WAS DOING ALL RIGHT
TTITLE14=NOEHERE
TTITLE15=MY FOOLISH HEART
TTITLE16=UNTIL THE REAL THING COMES ALONG
TTITLE17=LUSH LIFE
TTITLE18=LAUGHING BOY
TTITLE19=SUMMER IS GONE
TTITLE20=LILACS IN THE RAIN 
TTITLE21=EVEN IF IT BREAKS MY HEART
TTITLE22=ALL THINGS COULD LEAD TO LOVE
TTITLE23=SKYLINER
EXTD=
EXTT0=
EXTT1=
EXTT2=
EXTT3=
EXTT4=
EXTT5=
EXTT6=
EXTT7=
EXTT8=
EXTT9=
EXTT10=
EXTT11=
EXTT12=
EXTT13=
EXTT14=
EXTT15=
EXTT16=
EXTT17=
EXTT18=
EXTT19=
EXTT20=
EXTT21=
EXTT22=
EXTT23=
PLAYORDER=
